# AST/ASF file generated using VICON BodyLanguage
# -----------------------------------------------
:version 1.10
:name VICON
:units
  mass 1.0
  length 0.45
  angle deg
:documentation
   .ast/.asf automatically generated from VICON data using
   VICON BodyBuilder and BodyLanguage model FoxedUp or BRILLIANT.MOD
:root
   order TX TY TZ RX RY RZ
   axis XYZ
   position 0 0 0  
   orientation 0 0 0 
:bonedata
  begin
     id 1 
     name lhipjoint
     direction 0.631061 -0.684803 0.364427 
     length 2.59943 
     axis 0 0 0  XYZ
  end
  begin
     id 2 
     name lfemur
     direction 0.34202 -0.939693 0  
     length 6.69088  
     axis 0 0 20  XYZ
    dof rx ry rz
    limits (-160.0 20.0)
           (-70.0 70.0)
           (-60.0 70.0)
  end
  begin
     id 3 
     name ltibia
     direction 0.34202 -0.939693 0   
     length 7.83506   
     axis 0 0 20   XYZ
    dof rx
    limits (-10.0 170.0)
  end
  begin
     id 4 
     name lfoot
     direction 0.176279 -0.484322 0.856947   
     length 2.95235   
     axis -90 7.62852e-016 20   XYZ
    dof rx rz
    limits (-45.0 90.0)
           (-70.0 20.0)
  end
  begin
     id 5 
     name ltoes
     direction 1.53551e-011 -4.21828e-011 1   
     length 1.41888   
     axis -90 7.62852e-016 20   XYZ
    dof rx
    limits (-90.0 20.0)
  end
  begin
     id 6 
     name rhipjoint
     direction -0.641155 -0.677457 0.360518   
     length 2.62761  
     axis 0 0 0  XYZ 
  end
  begin
     id 7 
     name rfemur
     direction -0.34202 -0.939693 0   
     length 6.52283   
     axis 0 0 -20   XYZ
    dof rx ry rz
    limits (-160.0 20.0)
           (-70.0 70.0)
           (-70.0 60.0)
  end
  begin
     id 8 
     name rtibia
     direction -0.34202 -0.939693 0   
     length 7.74138   
     axis 0 0 -20   XYZ
    dof rx
    limits (-10.0 170.0)
 end
 begin
     id 9 
     name rfoot
     direction -0.186474 -0.512334 0.838297   
     length 2.72941  
     axis -90 -7.62852e-016 -20   XYZ
    dof rx rz
    limits (-45.0 90.0)
           (-20.0 70.0)
  end
  begin
     id 10 
     name rtoes
     direction -1.53683e-011 -4.22007e-011 1   
     length 1.30521   
     axis -90 -7.62852e-016 -20   XYZ
    dof rx
    limits (-90.0 20.0)
  end
  begin
     id 11 
     name lowerback
     direction -0.0121201 0.985605 -0.168631   
     length 2.60975   
     axis 0 0 0   XYZ
    dof rx ry rz
    limits (-20.0 45.0)
           (-30.0 30.0)
           (-30.0 30.0)
  end
  begin
     id 12 
     name upperback
     direction -0.019495 0.999568 -0.0220039   
     length 2.65091   
     axis 0 0 0   XYZ
    dof rx ry rz
    limits (-20.0 45.0)
           (-30.0 30.0)
           (-30.0 30.0)
  end
  begin
     id 13 
     name thorax
     direction -0.0125765 0.998661 0.0501718   
     length 2.70267   
     axis 0 0 0   XYZ
    dof rx ry rz
    limits (-20.0 45.0)
           (-30.0 30.0)
           (-30.0 30.0)
  end
  begin
     id 14 
     name lowerneck
     direction -0.0309438 0.997491 -0.0636732   
     length 1.56498   
     axis 0 0 0   XYZ
    dof rx ry rz
    limits (-20.0 45.0)
           (-30.0 30.0)
           (-30.0 30.0)
  end
  begin
     id 15 
     name upperneck
     direction -0.00130017 0.992397 -0.123074   
     length 1.5414   
     axis 0 0 0   XYZ
    dof rx ry rz
    limits (-20.0 45.0)
           (-30.0 30.0)
           (-30.0 30.0)
  end
  begin
     id 16
     name head
     direction 0.00242507 0.999315 -0.0369171  
     length 1.60129  
     axis 0 0 0   XYZ
    dof rx ry rz
    limits (-20.0 45.0)
           (-30.0 30.0)
           (-30.0 30.0)
  end
  begin
     id 17 
     name lclavicle
     direction 0.996744 0.0363396 -0.0719802  
     length 4.63989  
     axis 0 0 0   XYZ
    dof ry rz
    limits (-20.0 10.0)
           (0.0 20.0)
  end
  begin
     id 18 
     name lhumerus
     direction 1 -4.49035e-011 -2.38432e-027   
     length 4.58161   
     axis 180 -30 -90   XYZ
    dof rx ry rz
    limits (-60.0 90.0)
           (-90.0 90.0)
           (-90.0 90.0)
  end
  begin
     id 19
     name lradius
     direction 1 0.000357117 -0.000206182   
     length 3.43782   
     axis 180 -30 -90   XYZ
    dof rx
    limits (-10.0 170.0)
  end
  begin
     id 20
     name lwrist
     direction 1 -7.34592e-005 -0.000404398   
     length 1.71891   
     axis 7.40711e-015 90 90   XYZ
    dof ry
    limits (-180.0 0.0)
 end
  begin
     id 21 
     name lhand
     direction 1 -4.48735e-011 -2.22254e-026   
     length 1.04662   
     axis 1.41817e-014 90 90   XYZ
    dof rx rz
    limits (-90.0 90.0)
           (-45.0 45.0)
  end
  begin
     id 22 
     name lfingers
     direction 1 -4.49414e-011 -4.44507e-026   
     length 0.843814   
     axis 2.83634e-014 90 90   XYZ
    dof rx
    limits (0.0 90.0)
  end
  begin
     id 23
     name lthumb
     direction 0.707107 -6.3482e-011 0.707107   
     length 1.21155   
     axis -90 45 2.85299e-015   XYZ
    dof rx rz
    limits (-45.0 45.0)
           (-45.0 45.0)
  end
  begin
     id 24 
     name rclavicle
     direction -0.997328 0.0105626 0.0722925   
     length 4.0272  
     axis 0 0 0   XYZ 
    dof ry rz
    limits (-10.0 20.0)
           (-20.0 0.0)
  end
  begin
     id 25 
     name rhumerus
     direction -1 -4.48913e-011 -1.83378e-027  
     length 4.53415   
     axis 180 30 90   XYZ
    dof rx ry rz
    limits (-90.0 60.0)
           (-90.0 90.0)
           (-90.0 90.0)
  end
  begin
     id 26 
     name rradius
     direction -0.999999 0.00120542 -0.000695951   
     length 3.33298   
     axis 180 30 90   XYZ
    dof rx
    limits (-10.0 170.0)
  end
  begin
     id 27 
     name rwrist
     direction -0.999999 0.000362235 -0.0013361   
     length 1.66649   
     axis 7.40711e-015 -90 -90   XYZ
    dof ry
    limits (-180.0 0.0)
  end
  begin
     id 28
     name rhand
     direction -1 -4.49379e-011 -2.22254e-026   
     length 1.21477   
     axis 1.41817e-014 -90 -90   XYZ
    dof rx rz
    limits (-90.0 90.0)
           (-45.0 45.0)
  end
  begin
     id 29
     name rfingers
     direction -1 -4.48656e-011 -4.44507e-026   
     length 0.979378   
     axis 2.83634e-014 -90 -90   XYZ
    dof rx
    limits (0.0 90.0)
  end
  begin
     id 30
     name rthumb
     direction -0.707107 -6.35052e-011 0.707107   
     length 1.4062   
     axis -90 -45 -2.85299e-015   XYZ
    dof rx rz
    limits (-45.0 45.0)
           (-45.0 45.0)
  end
:hierarchy
  begin
    root lhipjoint rhipjoint lowerback
    lhipjoint lfemur
    lfemur ltibia
    ltibia lfoot
    lfoot ltoes
    rhipjoint rfemur
    rfemur rtibia
    rtibia rfoot
    rfoot rtoes
    lowerback upperback
    upperback thorax
    thorax lowerneck lclavicle rclavicle
    lowerneck upperneck
    upperneck head
    lclavicle lhumerus
    lhumerus lradius
    lradius lwrist
    lwrist lhand lthumb
    lhand lfingers
    rclavicle rhumerus
    rhumerus rradius
    rradius rwrist
    rwrist rhand rthumb
    rhand rfingers
  end

#!OML:ASF X:\für Bonn\!DataBase\2005_08_12_Daniel\c3d\Daniel.ASF
:FULLY-SPECIFIED
:DEGREES
1
root 22.6974 17.5849 23.9645 -174.319 -44.1348 172.202
lowerback 11.6624 1.31851 -1.47743
upperback 1.76293 1.27623 -2.50974
thorax -4.66883 0.568914 -1.98277
lowerneck -7.80787 0.618015 -4.79944
upperneck 4.27256 1.30444 0.000240438
head 2.69815 0.553691 0.897274
rclavicle 8.67571e-014 1.59028e-014
rhumerus -56.5729 16.2395 -106.177
rradius 98.8757
rwrist -2.64406
rhand -15.6589 26.9335
rfingers 7.12502
rthumb 10.5292 -2.78282
lclavicle 8.67571e-014 1.59028e-014
lhumerus -74.4702 -5.75984 96.5984
lradius 107.229
lwrist 15.1869
lhand -2.17386 -10.0044
lfingers 7.12502
lthumb 23.5066 18.5794
rfemur 13.9797 8.31018 23.1777
rtibia 27.382
rfoot -3.76497 -10.9866
rtoes -2.50154
lfemur -31.981 1.92895 -26.5074
ltibia 76.3045
lfoot -4.59915 -0.679977
ltoes -2.0623
2
root 22.3892 17.7189 23.6543 -174.115 -44.1676 172.187
lowerback 11.3001 1.39402 -1.55252
upperback 1.73456 1.37383 -2.62282
thorax -4.49471 0.618472 -2.06422
lowerneck -7.75922 0.577808 -4.70539
upperneck 4.20406 1.23954 -0.0347607
head 2.66775 0.523343 0.865331
rclavicle 3.41351e-015 -1.75179e-014
rhumerus -57.0123 17.4622 -106.682
rradius 99.8338
rwrist -3.14758
rhand -14.997 26.4162
rfingers 7.12502
rthumb 11.1677 -3.26657
lclavicle 3.41351e-015 -1.75179e-014
lhumerus -74.5211 -5.59412 96.0933
lradius 107.917
lwrist 15.3398
lhand -2.15296 -9.88621
lfingers 7.12502
lthumb 23.5267 18.695
rfemur 15.3579 7.4894 22.9044
rtibia 26.0158
rfoot -0.166433 -11.5032
rtoes -4.58884
lfemur -31.6795 1.52915 -26.5816
ltibia 72.1868
lfoot -4.75483 -0.46971
ltoes -5.61495
3
root 22.0869 17.8353 23.3514 -173.855 -44.1806 172.153
lowerback 10.8979 1.48879 -1.6334
upperback 1.67053 1.4978 -2.75583
thorax -4.33443 0.681484 -2.16555
lowerneck -7.60894 0.532334 -4.59945
upperneck 4.08892 1.15979 -0.0567581
head 2.60288 0.487429 0.833575
rclavicle -1.01449e-013 1.9133e-014
rhumerus -57.4509 18.4193 -107.184
rradius 100.525
rwrist -3.56093
rhand -14.4161 26.2288
rfingers 7.12502
rthumb 11.7279 -3.42288
lclavicle -1.01449e-013 1.9133e-014
lhumerus -74.5536 -5.54498 95.597
lradius 108.439
lwrist 15.5103
lhand -2.28334 -9.86067
lfingers 7.12502
lthumb 23.4016 18.7365
rfemur 16.3165 6.64239 22.5698
rtibia 25.3654
rfoot 3.12932 -11.7318
rtoes -6.62364
lfemur -31.3121 1.10485 -26.6519
ltibia 67.9842
lfoot -5.03881 -0.294731
ltoes -8.86448
4
root 21.788 17.9377 23.053 -173.577 -44.2014 172.155
lowerback 10.4347 1.58807 -1.68421
upperback 1.60225 1.63597 -2.87894
thorax -4.14323 0.75172 -2.27209
lowerneck -7.50463 0.456724 -4.62264
upperneck 3.99892 1.05062 0.0156761
head 2.55573 0.437371 0.85456
rclavicle -2.23509e-014 6.95746e-016
rhumerus -57.8306 19.1742 -107.634
rradius 100.973
rwrist -3.88407
rhand -14.0065 26.2558
rfingers 7.12502
rthumb 12.1229 -3.37302
lclavicle -2.23509e-014 6.95746e-016
lhumerus -74.5798 -5.62415 95.1614
lradius 108.879
lwrist 15.6985
lhand -2.5611 -9.93606
lfingers 7.12502
lthumb 23.1351 18.6948
rfemur 17.1906 5.96755 22.3207
rtibia 24.8152
rfoot 6.11859 -12.045
rtoes -7.8454
lfemur -30.8953 0.677936 -26.6796
ltibia 63.6886
lfoot -5.38891 -0.163554
ltoes -11.9861
5
root 21.4923 18.0308 22.7554 -173.228 -44.2515 172.134
lowerback 9.91694 1.67975 -1.76192
upperback 1.51752 1.76348 -3.01258
thorax -3.93898 0.81718 -2.36973
lowerneck -7.40346 0.361625 -4.69901
upperneck 3.89106 0.917308 0.153439
head 2.50407 0.376969 0.904961
rclavicle -8.67198e-015 1.89839e-014
rhumerus -58.2399 19.8447 -108.079
rradius 101.24
rwrist -4.24179
rhand -13.8656 26.468
rfingers 7.12502
rthumb 12.2587 -3.1527
lclavicle -8.67198e-015 1.89839e-014
lhumerus -74.6098 -5.66991 94.7006
lradius 109.314
lwrist 15.7133
lhand -2.89517 -10.0272
lfingers 7.12502
lthumb 22.8146 18.6435
rfemur 17.7677 5.47093 22.1222
rtibia 24.7291
rfoot 8.45476 -12.5448
rtoes -7.78657
lfemur -30.4412 0.26404 -26.7025
ltibia 59.3543
lfoot -5.83247 -0.236793
ltoes -14.8228
6
root 21.1964 18.1175 22.4586 -172.888 -44.3347 172.108
lowerback 9.41326 1.74528 -1.84898
upperback 1.43315 1.8564 -3.13394
thorax -3.74319 0.865526 -2.44362
lowerneck -7.27881 0.274083 -4.80777
upperneck 3.77847 0.796083 0.282759
head 2.44664 0.321585 0.958699
rclavicle -7.50661e-014 6.36111e-015
rhumerus -58.6805 20.4636 -108.486
rradius 101.352
rwrist -4.59576
rhand -13.9992 26.7428
rfingers 7.12502
rthumb 12.1299 -2.88554
lclavicle -7.50661e-014 6.36111e-015
lhumerus -74.6624 -5.58315 94.2492
lradius 109.761
lwrist 15.5465
lhand -3.27318 -10.2097
lfingers 7.12502
lthumb 22.4518 18.5053
rfemur 18.1221 5.06563 21.9621
rtibia 25.0873
rfoot 10.1794 -13.1062
rtoes -6.8681
lfemur -29.9319 -0.131544 -26.7243
ltibia 55.0053
lfoot -6.27997 -0.49062
ltoes -17.3576
7
root 20.9031 18.1901 22.1639 -172.564 -44.4425 172.099
lowerback 8.94271 1.79124 -1.94497
upperback 1.3408 1.92286 -3.239
thorax -3.57525 0.900849 -2.49251
lowerneck -7.15839 0.206357 -4.94382
upperneck 3.65505 0.703082 0.426929
head 2.38616 0.280319 1.02329
rclavicle 2.88735e-014 -1.19271e-014
rhumerus -59.1357 20.9331 -108.842
rradius 101.375
rwrist -4.91853
rhand -14.2536 27.0664
rfingers 7.12502
rthumb 11.8846 -2.5763
lclavicle 2.88735e-014 -1.19271e-014
lhumerus -74.7864 -5.42335 93.8353
lradius 110.329
lwrist 15.225
lhand -3.70706 -10.2888
lfingers 7.12502
lthumb 22.0352 18.4758
rfemur 18.2466 4.75862 21.8832
rtibia 25.9099
rfoot 11.2211 -13.6645
rtoes -6.06797
lfemur -29.4098 -0.500449 -26.7208
ltibia 50.6754
lfoot -6.6687 -0.86075
ltoes -19.598
